<?xml version="1.0" encoding="UTF-8" standalone="no"?>
<svg width="35px" height="34px" viewBox="0 0 35 34" version="1.1" xmlns="http://www.w3.org/2000/svg" xmlns:xlink="http://www.w3.org/1999/xlink">
    <!-- Generator: Sketch 3.7 (28169) - http://www.bohemiancoding.com/sketch -->
    <title>Group 6</title>
    <desc>Created with Sketch.</desc>
    <defs></defs>
    <g id="Desktop" stroke="none" stroke-width="1" fill="none" fill-rule="evenodd">
        <g id="Artboard-25" transform="translate(-581.000000, -167.000000)">
            <g id="Group-5" transform="translate(581.000000, 167.000000)">
                <g id="Group-6">
                    <rect id="Rectangle-65-Copy-3" fill="#D5D2D2" x="0.829615395" y="0" width="33.8621161" height="33.2433754"></rect>
                    <path d="M7.40860317,10.7214602 C8.02782801,11.0477824 16.6021006,15.5635639 16.9212259,15.7316994 C17.2406049,15.8998349 17.6540979,15.980918 18.0706351,15.980918 C18.4871722,15.980918 18.9006652,15.8998349 19.2200442,15.7316994 C19.5391695,15.5635639 28.1134421,11.0477824 28.7326669,10.7214602 C29.3521455,10.3953868 29.938646,9.37140175 28.8003986,9.37140175 L7.34087149,9.37140175 C6.20338515,9.37140175 6.78887098,10.3953868 7.40860317,10.7214602 L7.40860317,10.7214602 Z M28.9949687,13.2086719 C28.2915232,13.5685714 19.6507873,17.9987928 19.2200442,18.2189111 C18.7890475,18.4395267 18.4871722,18.4681297 18.0706351,18.4681297 C17.6540979,18.4681297 17.3522226,18.4395267 16.9212259,18.2189111 C16.4904829,17.9987928 7.85025431,13.5685714 7.14630146,13.2086719 C6.65112453,12.9554737 6.65518336,13.2524468 6.65518336,13.4817677 L6.65518336,22.6046114 C6.65518336,23.1259309 7.36344872,23.7972294 7.91316614,23.7972294 L28.228104,23.7972294 C28.7778214,23.7972294 29.4860868,23.1259309 29.4860868,22.6046114 L29.4860868,13.4817677 C29.4860868,13.2524468 29.4906529,12.9554737 28.9949687,13.2086719 L28.9949687,13.2086719 Z" id="Mail" fill="#FFFFFF"></path>
                </g>
            </g>
        </g>
    </g>
</svg>