<?xml version="1.0" encoding="UTF-8" standalone="no"?>
<svg width="34px" height="33px" viewBox="0 0 34 33" version="1.1" xmlns="http://www.w3.org/2000/svg" xmlns:xlink="http://www.w3.org/1999/xlink">
    <!-- Generator: Sketch 3.7 (28169) - http://www.bohemiancoding.com/sketch -->
    <title>Group 2</title>
    <desc>Created with Sketch.</desc>
    <defs></defs>
    <g id="Desktop" stroke="none" stroke-width="1" fill="none" fill-rule="evenodd">
        <g id="Artboard-25" transform="translate(-470.000000, -167.000000)">
            <g id="Group-5" transform="translate(341.000000, 123.000000)">
                <g id="Group-2" transform="translate(129.000000, 44.000000)">
                    <rect id="Rectangle-65-Copy" fill="#55ACEE" x="0" y="0" width="34" height="33"></rect>
                    <path d="M28.008,9.09015854 C27.2345859,9.44493514 26.4043132,9.68444477 25.5322529,9.79238945 C26.4223527,9.24061972 27.1057977,8.36690558 27.4277682,7.32595986 C26.5947553,7.8366303 25.6722301,8.20770489 24.6907911,8.40776866 C23.9045896,7.5411406 22.7840868,7 21.5448431,7 C19.1645454,7 17.2347779,8.99591362 17.2347779,11.4580916 C17.2347779,11.8074355 17.2726837,12.1478037 17.3462117,12.4739998 C13.7643477,12.2883444 10.5875727,10.5132804 8.46256783,7.81584446 C8.09150261,8.47437785 7.87868243,9.24014731 7.87868243,10.0571728 C7.87868243,11.6038287 8.63953739,12.968136 9.79589078,13.7679187 C9.0898393,13.7447708 8.42489043,13.5447071 7.84374522,13.2107163 C7.84328852,13.2291401 7.84328852,13.2475639 7.84328852,13.2664602 C7.84328852,15.4267709 9.32937617,17.2285259 11.300703,17.6381015 C10.9394567,17.7401411 10.5585725,17.794704 10.1651292,17.794704 C9.88768661,17.794704 9.61800783,17.766832 9.35426609,17.7146312 C9.90275757,19.4856798 11.495027,20.7748746 13.3807233,20.8105413 C11.905368,22.006436 10.0473017,22.7192961 8.02802191,22.7192961 C7.68024817,22.7192961 7.33726974,22.6980378 7,22.6562299 C8.90716104,23.9215683 11.1721431,24.6599382 13.607016,24.6599382 C21.5345675,24.6599382 25.8699793,17.8660372 25.8699793,11.9744309 C25.8699793,11.7816894 25.865869,11.5891841 25.8574202,11.3976237 C26.6993386,10.7697966 27.4298233,9.98465853 28.008,9.09015854 L28.008,9.09015854 Z" id="Twitter" fill="#FFFFFF"></path>
                </g>
            </g>
        </g>
    </g>
</svg>