<?xml version="1.0" encoding="UTF-8" standalone="no"?>
<svg width="34px" height="33px" viewBox="0 0 34 33" version="1.1" xmlns="http://www.w3.org/2000/svg" xmlns:xlink="http://www.w3.org/1999/xlink">
    <!-- Generator: Sketch 3.7 (28169) - http://www.bohemiancoding.com/sketch -->
    <title>Group 3</title>
    <desc>Created with Sketch.</desc>
    <defs></defs>
    <g id="Desktop" stroke="none" stroke-width="1" fill="none" fill-rule="evenodd">
        <g id="Artboard-25" transform="translate(-525.000000, -167.000000)">
            <g id="Group-3" transform="translate(525.000000, 167.000000)">
                <rect id="Rectangle-65-Copy-2" fill="#BD081C" x="0" y="0" width="34" height="33"></rect>
                <path d="M11.1588329,28.4960532 C10.4263026,23.3986967 12.234893,19.5707189 13.0746046,15.5066004 C11.6430225,13.1437237 13.2467442,8.38759536 16.2668078,9.55972525 C19.9826753,11.0013103 13.0486212,18.3451879 17.7033867,19.2628051 C22.5635206,20.2201058 24.5477484,10.9949414 21.5339307,7.99468077 C17.1797225,3.66282183 8.85905746,7.89620716 9.88215148,14.0980848 C10.1309919,15.6146274 11.7287175,16.0744158 10.5204922,18.1671025 C7.73377895,17.5613183 6.90181238,15.406412 7.00899366,12.5330403 C7.18113329,7.83055809 11.3187304,4.53781619 15.4683198,4.08243699 C20.7164549,3.50629289 25.6420467,5.97131757 26.3221107,10.8117119 C27.0881196,16.2750374 23.9536293,22.1922725 18.3414776,21.7665333 C16.8207027,21.6506676 16.1821121,20.9121156 14.9898766,20.2014889 C14.3335474,23.5740875 13.5323111,26.8073043 11.1588329,28.4960532 Z" id="Pinterest" fill="#FFFFFF"></path>
            </g>
        </g>
    </g>
</svg>